<svg xmlns="http://www.w3.org/2000/svg" viewBox="0 0 180 216">
  <path d="m62.8 80.5-5-5.3-2.3.6-.9 1s-.8 3.7.1 7.3l1 2.9.9 2.7.3 1.6 1.2 4.7s1.4 7.9 7.3 6.8l-.5-2.8-.5-6-1.6-13.5zm56.1-4.1-1.5 4.5.1 5.4-1.3 6.5-.4 4.3s-.1 3.8 2.2 3.9c1.9.1 2.4.3 3.8-1.9l2.7-4.6 1.4-3.5 1.3-3.2 1.2-3.7.4-2.7s.8-6.9-3.8-7.6-6.1 2.6-6.1 2.6zm-8.1 46.1s-.1 18.3-16.6 19.7c0 0-18.1.9-21.2-8.8l-5.5-25s15.6 17.6 26.6 13l20.6-17.7c-.2.1-4.2 16-3.9 18.8z" fill="#da8a65"/>
  <path d="M161.4 202.4z" fill="#48474d"/>
  <path d="m68.6 46.3 2.9-.7 5.3-.2 3 1.2 2.5 1.8s6.6 2.5 9.8.6 9.4-3.2 9.4-3.2l6.3-1.6 7.7 9.5-1 10.2.2 5.6 1.3 4.6.8 4.3.6 4-.4 7.4-1 2.5-1.7 10.3-1.4 4.5-2.6 1.4-1.9 3.3-.9 1.6-3.1-.7-2.5 4.2-2 2.9c-.2.2-9.6 2.8-9.6 2.8l-4.7-.4-6.5-2.3-8.1-7.2-5.9-9.2s-2-1.3-1.2-2.9c.7-1.6.6-6.3.6-6.3l-1.2-5.6s-2.1-8.9-.7-10.6.9-10.1.9-10.1l-.8-5.8-.4-5.5 1.8-4.8c0 .2 2.2-5.4 4.5-5.6z" fill="#da8a65"/>
  <g fill="#271612">
    <path d="M113.8 108.6c-.2-.4.1-.2.1-.6-.8.9-1.4 1.9-2 2.9-1.1 1.7-2.7 3-4 4.5l-4.1 5c-1.4 1.9-3 3.7-5.2 4.6-1.1.5-2 1.1-3.1 1.4-1.6.5-3.2.9-4.9.9-1.8 0-3.5-.3-5.2-.5-.8-.1-1.6-.6-2.4-.9-1.5-.7-2.9-1.4-4.1-2.4-1.5-1.2-2.7-2.7-3.9-4.2-1.7-2-2.9-4.4-4.8-6.3-.4-.4-.5-1.1-1.3-1.1-.3-1.3-1-2.3-1.6-3.5s-1.2-2.5-1.6-3.7c-.3-.9-.7-1.6-1.3-2.3.2-.4.6.5.7-.1 0-.4 0-.9-.1-1.3 0-.1-.1-.3-.2-.3s-.2.1-.3.2c-.2.4-.3.9-.5 1.3-.6 0-1.2.1-1.7-.3.6 0 1.3.2 1.6-.7s.4-1.8.3-2.7c-.4-3.8-1.1-7.5-1.8-11.3-.1-.4-.1-1-.5-1s-.7.5-.9.9c-.1.2-.1.3-.2.5-.4 1.7.2 3.2 1.3 4.4.5.6.9 1.2 1 2 .1.2.3.5 0 .7-.3.1-.5-.1-.6-.4-.4-1-1.3-1.1-2.2-1.3-.4-.1-.7-.1-.9-.5-.4-.7-.8-1.5-1-2.3-.3-1.4.1-2.7.3-4.1.1-1 .4-1.8 1.3-2.2.4-.2.5-.6.5-1 0-.2 0-.5-.2-.6-.2-.2-.4 0-.6.2-.3.2-.6.5-1 .8-.1.1-.2.1-.3.1-.1-.1-.1-.2-.1-.4.2-.6.7-.9 1.2-1 .7-.2.7-.6.4-1.1-.4-.7-.9-1.2-1.5-1.8 1.1.4 1.7 1.4 1.9 2.4.4 1.4.7 2.8 1.7 4 .2-1.8-.1-3.6-.7-5.2-.7-2.1-2.7-2.9-4.4-4-.3-.2-.7-.1-1 .1-1.2.5-1.3 1.5-1.2 2.6.8-1.3 2.4-1.4 3.1-.1-1.5-.4-1.9-.1-1.9 1.4 0 .6 0 1.2.1 1.7.4 2.4 1.1 4.8 1.3 7.3.1.9.2 1.9.6 2.8l1.2 2.1s0 .1-.1.1c-.8-.6-1.1-1.5-1.5-2.4-.6-1.7-.6-3.4-1.1-5.1-.6-2.3-1.4-4.5-1.8-6.8-.1.7 0 1.4.1 2.1.6 2.2 1.1 4.5 1.7 6.7.4 1.5.6 3.1 1.1 4.6.6 1.8 1.3 3.6 2 5.4-1.4-2.6-2.3-5.3-2.9-8.3-.6-2.8-1.6-5.4-2.2-8.2-.5-2.3-.7-4.7.6-6.9.4-.7.5-1.6.5-2.4l.1-11.5c.1-2.3.4-4.6 1-6.8.3-1 .5-2.1.8-3.1.5-2.3 1.3-4.5 2.3-6.5.6-1.2 1.1-2.4 1.5-3.7.4-1.4 1.2-2.6 1.8-3.8.2-.5.5-1 .8-1.6.1 0 .3.1.4-.1.5-.7 1.2-1.3 1.6-2.1.5-1.1 1-2.2 1.3-3.4 0-.1.1-.3.2-.3.2 0 .2.2.2.3.1.7.1 1.3-.2 2-.3.6-.4 1.2-.3 1.7 0-.7.3-1.4.9-2 .2-.2 0-.5.3-.6.4-.1.2.5.5.6.4-.2.5-.5.6-.9s-.2-1.4.9-1c0 0 .2-.1.2-.2.2-.6.6-1 .7-1.6l.3-.3c.6-.4.8-1 1.3-1.5.4-.4.5-.8 1.2-.8.3 0 .5-.8 1-.7.4.1 0 .8.3 1.2.5-.5.6-.6.7-1.4 0-.2-.1-.5.3-.4.8.2 1.3-.3 1.3-1.2 0-.4-.5-1 .4-1.2.2 0 .9-.4 1.1-1 .6.1 1.2.2 1.7.4.1 0 .3.4.5.4.3-.1.3-.4.3-.6 0-.5 0-1 .7-1 .1 0 .3-.2.4-.3.3-.8.9-.4 1.2-.1s.5.4.8.1.6-.5.7.2c0 .1.3.2.4.3.4.5 1 .1 1.4.4.2.2.9.8 1.1-.2 0-.1.3-.1.3-.1.4.6.9.8 1.6.8.1 0 .1.2.1.3.3.5.7.8 1.3 1-.2-.6-.4-1.1.1-1.5.2.1.2.5.5.5.1.1.1.2.2.2-.2.5.1 1.1.4 1 .7-.1.9.4 1.2.8.2.3.6.5.9.2.4-.3.3-.7-.1-1-.3-.2-.4-.6-.7-.9-.1-.1-.2-.4-.1-.5.2-.2.3 0 .5.2s.5.4.7.2c.3-.2.1-.5 0-.7-.2-.5-.1-.6.4-.6.2.1.3.3.5.4.3.7 1 .6 1.5.8l.2.2c-.1.4.2.6.4.7.6.3 1 .6 1.5 1 .3.4.6.7.9 1.1-.1.5.3.8.6 1s.6.5.8.8c.4.6.8.7 1.3.1.1-.2.3-.4.4-.2.6.6 1.5.8 1.7 1.8.3 1.6 1.4 2.8 2.3 4-.3-.6-.1-1.4-.5-2-.1-.2 0-.4.2-.5.1-.1.2 0 .3.1 1.2 1.5 2.5 2.8 3.2 4.7.2.5.5.8 1 .8.9 1.5 2.3 2.6 3.4 3.9 1.8 2 2.6 4.4 3.4 6.9 1.2 3.7 2 7.6 3.1 11.4.3 1.1.1 2.2.4 3.3l.9 4.5c.2 1.1.2 2.3.2 3.4 0 .9.1 1.7.2 2.6.2 1.6 1 2.6 2.3 3.4-.1.1-.2.2-.3.1-.8-.1-1.5 0-2.2.3-1.3.7-2.6 1.5-3.8 2.3-1 .8-1.6 1.8-1.7 3.1-.1.6-.1 1.3-.1 1.9 0 3.2-.3 6.3-.8 9.4-.3 1.9-1 3.7-1 5.7 0 1.3.5 2.2 1.5 3 .5.3 1 .3 1.5.6-1.2.1-2.4-.1-3.1-1.3-.2-.3-.3-.2-.5 0-.3.4-.4.9-.1 1.1.4.5.2.8 0 1.2-.3 1.9-.7 4.1-1.3 6.4zM95.1 33.2c0-.1 0-.1 0 0 0-.1 0-.1 0 0 0-.1 0-.1 0 0-.2.8-.5 1.6-.4 2.5.3-.8.5-1.5.7-2.3.1-.3-.1-.2-.3-.2zm-18.4 80.3s.1.1 0 0c.1.2.1.3.1.3 1-.2.9.5 1 1.1.1.4.2.9.4 1.1.5.3.8.9 1.3 1.2.6.3.4.5.1 1 .7-.3 1.2-.6.9.4 0 .1-.1.3.3.4 0-.5.3-.7.7-1 .5-.3.9.1 1.3.1.3 0 .5.1.7.4.4.5.9 1.2 1.8.6-.1.5.2.9.2 1.3 0 .2-.2.5.1.5.3-.1.7.2.8-.3.1-.2-.1-.5.3-.4.3.1.5.2.6.5 0 .1.1.3.3.3.1-.2.1-.3.2-.5.3.1.2.6.5.5.4-.2.7-.5.7-1 1 .9 1 .9 1.6.4.3.1.2.4.5.5.4-.9 1.3-1 2-.1v.6c.2-.3.2-.5 0-.6 0-.3 0-.6-.1-.9.7-.1.8.5 1 .9-.3-.6.4-.7.5-1.3.1.3.2.5.3.6v.4c.4-.6.4-1.6 1.4-1.6 0 .2 0 .4.1.7.6-1.4.7-1.4 1.2-.9.1-.3-.1-1 .2-.9.5.1 1.2-.2 1.4.6v.1l-.1-.1c0-.2.1-.5.1-.7 0-.3-.3-.7.2-.8.4-.1 1-.4 1.3.2.1.2.2.5.6.6-.1-.4-.3-.8-.1-1.2.2-.5.7-.2 1.1-.3-.2-.4-.6-.4-.9-.5-.1-.1-.2-.2-.2-.3s.1-.1.3-.1c.8.2.9.1.5-.5-.4-.8 1 0 .6-.7l-.3-.3c-.1-.2-.1-.3.1-.5.2-.1.3 0 .5 0 .2.1.2.2.3.4.1.1.3.3.4.1.1-.1 0-.3 0-.5-.1-.1-.3-.2-.4-.3s-.3-.2-.3-.4c.1-.2.3-.2.5-.2s.2.3.5.2c0-.4-.2-.6-.5-.7-.1 0-.3-.3-.3-.3.6-.1.1-.6.4-.8.4-.4.7.2 1.1.1-.4-.7.2-1.2.5-1.6.1-.2.8-.5.9.1.1.4.3.8.4 1.3s.2 1.1-.7 1c.1.2.1.3.2.5.3.8.4.9 1.7 1 0 0 .1.1.1 0 .3-.2 0-.5.2-.8l.1-.1c.3-1.3 1.4-2.2 2-3.4.2-.4.7-1.1.8-1 .7.3 1-.4 1.4-.6.3-.2.6-.3.8-.7.9-2.5 1.4-5.1 2-7.7.2-1 .2-2 .3-3s.4-1.9.6-2.9c.2-1.1.1-2.4.8-3.4.6-.8.6-1.7.6-2.5.1-3.1-.7-6.1-1.1-9.2-.2-2-.3-4-1-5.9-1.2-3.2-1.4-6.4-.8-9.8.3-1.7.5-3.5.2-5.2-.3-2-1.4-3.8-2.6-5.4-.3-.4-.6-.6-.8-1-.9-1.5-2.1-2.6-3.5-3.6-.3-.2-.6.1-1-.3-.7-.8-2.4-.7-3.1.1-.2.2-.4.4-.6.4-.5-.1-1 .4-1.6.1-.3-.1-1.1 0-1.3.3-.6 1.1-.8.1-1.1-.2l-.2.4c.3.5.2.4-.4.6-.9.3-1.9.1-2.8.5-.3.1-.6.2-.9-.1a.38.38 0 0 0-.6 0c-.2.3.3.2.3.4-.4.3-1-.1-1.4.2-1.2.8-2.6.9-4 .8-1.6-.1-3.2-.1-4.7-.6-1.7-.5-3.5-.9-4.8-2.2-.3-.3-.7-.5-1.2-.5.2.4.7.5.7.9-.7.2-1.1-.3-1.6-.5-1.3-.4-2.7-.1-3.9-.6-.8-.3-1.2-.3-2.3-.1-.1 0-.2-.1-.3-.1-.2-.1-.4-.1-.7-.2.2.7-.1 1-.7 1-.3 0-.5.4-.8.6-1.1 1.1-2 2.4-2.9 3.7-.8 1.1-1.7 2.2-2.2 3.5-1 2.3-.4 4.7-.1 7 .4 2.4 1.1 4.7 1.2 7.1.1 3.5-.7 7-.8 10.4-.1 2.5-.7 5-.2 7.5.2 1.3.2 2.7.7 4 .3.6.6 1.2.7 1.9.4 2.6.6 5.2 1.2 7.8.6 3.1 1.7 5.9 4.2 8 .3.3.7.3 1 .7.9 1.1 1.6 2.4 2.6 3.4.1.1.1.5.5.3.2-.2.2-.4.2-.6-.1-1.3-.1-2.6.3-3.8.1-.3.3-.4.6-.4-.2.5-.1 1.2.3 1.2.5 0 .4.2.5.5.1.4.1.8.4 1.1.3.4.5 1 0 1.6-.3.1-.3.5-.1.7zm10.2-65.1c0 .4.5.3.4.7-.7.3-1.2-.3-2-.2.6.5 1.3.6 1.9.6.8-.1 1.7-.2 2.5.1.7.3 1.2 0 1.8-.4-.1-.1-.3-.2-.3-.2-.8.2-1.5-.5-2.1-.4-.8.3-1.5 0-2.2-.2zM98.2 39c.3-1.4.1-2.8.4-4.1.1-.3 0-.5-.3-.5-.2 0-.6-.1-.6.4 0 .3 0 .6.1 1 .2.9.5 2 .4 3.2zm-21.9-6.2c-.1 1.8-.2 3.6.6 5.2-.3-1.7-.4-3.4-.6-5.2zm33 4.3c.1-1.3-.4-2.5-.8-3.7.2 1.2.3 2.5.8 3.7zM91.4 47.9c.6.6 1.2.7 1.9.6.2 0 .4-.1.4-.3s-.2-.3-.5-.3h-1.8zm-1.2-11.6c-.2 1-.2 2.1-.2 3.1.3-1 .3-2 .2-3.1zm0-4.4c-.6.8.4 1.5.1 2.3.6-.7.2-1.5-.1-2.3zm-2.7 2.3c-.4 1.1-.5 2.2-.5 3.3.2-1.1.6-2.1.5-3.3zm20.4 1.4c.1.8.2 1.6.6 2.4 0-.9-.3-1.7-.6-2.4zm.5-2.9zm-24.3 86.8zM125.2 93c-.4-.2-.1-.5 0-.7l2.7-7.2c.4-1.3.7-2.7.7-4.1 0-.2-.2-.5.3-.6.1 3.1-.9 5.9-2.1 8.7l-1.6 3.9zm2.3-17.7c-.5.1-.5-.2-.6-.5.4 0 .4.3.6.5z"/>
    <path d="M126.9 74.8c-.3 0-.7 0-.5-.5.3 0 .5.1.5.5zM60 98.7c.1.2.1.5.2.7-.1-.3-.1-.5-.2-.7zm2 3c.1.1.3 0 .4.2-.2-.1-.3-.2-.4-.2z"/>
  </g>
  <path d="M99.2 118.1c-.2-.7-.9-.4-1.4-.6-.2-.1-.1.6-.2.9-.5-.5-.6-.5-1.2.9 0-.3 0-.5-.1-.7-1 .1-1 1-1.4 1.6v-.4c0-.2-.1-.3-.3-.6-.1.6-.7.7-.5 1.3-.3-.5-.4-1-1-.9 0 .3 0 .6.1.9-.7-.9-1.6-.8-2 .1-.3-.1-.2-.5-.5-.5-.6.6-.6.6-1.6-.4 0 .5-.3.9-.7 1-.3.1-.3-.4-.5-.5-.1.2-.1.3-.2.5-.2 0-.3-.2-.3-.3-.1-.3-.3-.5-.6-.5-.4-.1-.2.3-.3.4-.2.5-.6.2-.8.3-.3.1-.1-.3-.1-.5 0-.4-.3-.8-.2-1.3-.9.6-1.4-.1-1.8-.6-.2-.3-.4-.4-.7-.4-.4 0-.8-.4-1.3-.1-.4.3-.7.5-.7 1-.3 0-.3-.2-.3-.4.2-1-.3-.8-.9-.4.3-.4.5-.7-.1-1-.5-.3-.8-.8-1.3-1.2-.3-.2-.4-.7-.4-1.1-.1-.6 0-1.3-1-1.1 0 0-.1-.2-.1-.3.1 0 .2-.1.1-.1-.1-.1-.1 0-.1.1-.2-.3-.2-.6 0-.8.5-.5.4-1.1 0-1.6-.3-.4-.3-.8-.4-1.1s0-.5-.5-.5c-.4 0-.5-.7-.3-1.2-.4 0-.5.1-.6.4-.4 1.2-.4 2.5-.3 3.8 0 .3 0 .5-.2.6-.3.2-.3-.2-.5-.3-1-1-1.7-2.3-2.6-3.4-.3-.4-.7-.4-1-.7-2.5-2.1-3.5-4.9-4.2-8L65 92.6c-.1-.7-.4-1.3-.7-1.9-.5-1.3-.4-2.7-.7-4-.5-2.5.1-5 .2-7.5.2-3.5 1-6.9.8-10.4-.1-2.4-.8-4.8-1.2-7.1-.3-2.3-.9-4.7.1-7 .5-1.3 1.4-2.3 2.2-3.5.9-1.3 1.9-2.5 2.9-3.7.2-.2.4-.6.8-.6.7 0 .9-.4.7-1 .3.1.5.1.7.2.1 0 .2.1.3.1 1.1-.2 1.5-.2 2.3.1 1.3.5 2.6.3 3.9.6.5.2 1 .7 1.6.5-.1-.4-.6-.5-.7-.9.5 0 .9.2 1.2.5 1.4 1.3 3.1 1.7 4.8 2.2 1.5.5 3.1.5 4.7.6 1.4.1 2.8 0 4-.8.4-.3.9.1 1.4-.2 0-.2-.5-.2-.3-.4.1-.2.5-.1.6 0 .3.3.6.3.9.1.9-.4 1.9-.2 2.8-.5.5-.2.7-.1.4-.6a.76.76 0 0 1 .2-.4c.4.3.5 1.3 1.1.2.2-.3.9-.5 1.3-.3.6.3 1-.2 1.6-.1.2 0 .4-.2.6-.4.8-.8 2.4-.9 3.1-.1.3.4.6.1 1 .3 1.4 1 2.6 2.1 3.5 3.6.2.4.6.7.8 1 1.2 1.6 2.3 3.4 2.6 5.4.2 1.7 0 3.5-.2 5.2-.5 3.3-.4 6.6.8 9.8.7 1.9.8 3.9 1 5.9.4 3.1 1.1 6.1 1.1 9.2 0 .9 0 1.7-.6 2.5-.7 1-.6 2.3-.8 3.4-.2 1-.5 2-.6 2.9-.1 1-.1 2-.3 3-.6 2.6-1.1 5.2-2 7.7-.1.4-.4.5-.8.7s-.7.9-1.4.6c-.1-.1-.6.7-.8 1-.6 1.2-1.7 2-2 3.4l-.1.1c-.2.2.1.6-.2.8h-.1c-1.3-.1-1.4-.2-1.7-1 0-.1-.1-.3-.2-.5.9.1.8-.5.7-1-.1-.4-.3-.8-.4-1.3-.1-.6-.8-.3-.9-.1-.3.5-.9.9-.5 1.6-.4.1-.7-.5-1.1-.1-.2.2.2.7-.4.8 0 0 .1.2.3.3.3.1.5.3.5.7-.2.1-.3-.2-.5-.2s-.4 0-.5.2.1.3.3.4c.1.1.3.1.4.3.1.1.2.3 0 .5-.1.1-.3 0-.4-.1s-.1-.3-.3-.4-.3-.2-.5 0c-.1.1-.1.3-.1.5 0 .1.2.2.3.3.3.7-1.1 0-.6.7.3.6.3.7-.5.5-.1 0-.2 0-.3.1 0 .2 0 .2.2.3.3.2.7.1.9.5-.3.1-.8-.2-1.1.3-.2.4 0 .8.1 1.2-.3-.1-.5-.4-.6-.6-.4-.6-.9-.3-1.3-.2s-.2.5-.2.8c.1.3.1.5.1.8-.1 0 0 0 0 0zm-14.9-47s0 .2.1.1c0-.1-.1-.1-.1-.1 0-.2 0-.5-.3-.5-.1.2 0 .4.3.5zm16.4 7c2.8.7 5.6-.2 8.5 0-1.4-2.9-4.7-4.4-7.4-4.2-2.4.2-4.1 1.5-5.8 3.1-.2.2-.5.3-.3.6.1.3.4.1.7.2.7.1.2-.5.3-.6.5-.1.3.4.6.6.1-.5.1-1.2.9-1.3.2.3 0 .9.5 1.1.7.1 1.4.3 2 .5zm-5.2-8.3c-.2.1-.4-.3-.6-.1-.4.5-1.1.9-1 1.7 0 .2.1.5-.2.9 0-.7.3-1.5-.5-1.5-.5 0-.5.6-.4 1-.2-.2-.5-.6-.7-.2-.2.3-.8.6-.1 1.1.9.8 1.9.7 2.8.5 1.9-.4 3.8-1.1 5.7-1.6 1.2-.3 2.4-.7 3.7-.5 2 .2 3.8 1.1 5.5 1.9.9.5 1.8 1.1 2.6 1.6.2.1.4.3.6.1.2-.1 0-.4 0-.5-.8-2.1-2-3.9-4-5.2-1.2-.8-2.4-.7-3.8-.7-3 0-5.9.3-8.8 1-.4 0-.7.1-.8.5zm-10.9 2.1c.1-.1.1-.3 0-.4h-.1c-.1.2 0 .4.1.4v.8c0 .1-.1.2-.3.1-.1 0-.1-.1-.1-.2.4-.8-.2-1.3-.5-1.8-.2-.3-.3-1.7-1.4-.9-.1.1-.2 0-.2-.2 0-.5-.4-.4-.7-.5l-2.6-.3c-2.1-.1-4.2-.1-6.3.1-1.8.2-3.4.8-4.4 2.5-.9 1.4-1.5 2.9-1.7 4.6 1.4-.5 2.2-1.6 3.2-2.5 1.7-1.4 3.6-2.1 5.7-2 1.3 0 2.5.2 3.6 1 .1.1.3.2.2.4-.1.1-.2.2-.3.2-.5 0-.9 0-1.4.1-3.1.1-6 .7-7.9 3.7-.1.1-.4.3-.1.5.2.1.3-.1.4-.2.7-.6 1.3-1.4 2.1-2 1.1-.9 2.4-1.4 3.8-1.2-1.8.2-3.4 1-4.6 2.4-.5.6-1.2 1.1-1.9 1.9.9-.3 1.6-.6 2.3-.5.6.1 1-.1 1.3-.5.6.1 1.2.6 1.9.4 1.5.4 2.9.5 4.4.2 1.1-.2 2.1-.6 3.3-.3.3.1.7 0 1.2 0-1.6-2.5-2.5-3.6-7.3-3.8 2.1-.7 3.9 0 5.6 1.2.7.5 1.3 1.3 2.1 1.5.5.1.8.2.9.7 0 .1.1.3.3.3s.2-.3.2-.4c-.1-1 .1-2-.8-2.7-.3-.2-.4-.8.1-.9.5-.2.7-.3.4-.8-.2-.3.1-.8-.5-.9zm17.2 20.4c.1.1.2.3.4.4 1.2 1 2.4 1.9 3.6 2.8 1.8 1.3 2.6 2.9 1.9 5.1-.4-2.8-.4-2.9-1.3-3.5-.2.3 0 .5-.1.8-.1.1-.2.4-.3.3-.3-.5-1.1 0-1.3-.7 0-.1-.2-.2-.3-.2-.7.2-1.4-.1-2-.3-1-.3-2.1-.1-3.1-.4-1.7-.4-3.4-.8-5.1-1.5-.2.2.2.4 0 .7-.2-.1-.5-.1-.8-.2-.2-.1-.3-.2-.3.1 0 .2.2.5-.2.4-.3 0-.5-.1-.6-.5 0-.2 0-.5-.1-.6-.3-.5 0-.9.4-1 1.1-.3 2.3-.5 3.2.4.3.3.7.4 1.1.4.5-.1.8-.5.9-.9.1-.5-.4-.2-.7-.3-.4-.2-.8-.3-1.2-.5-1.5-.6-2.9-.6-4.1.6-.7.6-1.4 1.1-2.4.5-.5-.3-1-.4-1.4-.8-.9-.8-2-.7-3-.5-.7.2-1.3.5-2 .5-.5 0-.9-.2-1-.6-.3-.9-.4-1.8.2-2.6.3-.4.6-.8.7-1.2-.3-.1-.4 0-.5.2-1 .9-1 3.7-.1 4.6l.1.1c1 .6 2.1 1 3.3 1.2l.1.1c-.1.5-.5.4-.8.5-.8.2-1.6 0-2.3.6-.1.1-.7.4-.9 0s-.3-.2-.5-.1c-.7.4-1.7.3-2.3.9-.1.1-.2.1-.3 0-.5-.5-1-.1-1.5.1-.6.3-1.1 1-1.8 1.1 0-.2-.1-.4-.3-.2-.2.1-.4.2-.7.2-.1-.2.3-.4 0-.7-1.2 1-1.3 2.4-1.7 3.8-.2-1.4.1-2.7.9-3.9s1.8-2 3-2.8c.4-.3.9-.6 1.2-1.1h-.3c-1.2 1-2.6 1.9-3.7 3.1s-1.5 2.7-1.4 4.3c.1 1.8.7 3.4 1.9 5 .2-1 .9-1.6 1.3-2.4.2-.5 1.1-.6 1.5-.2 1.3 1.2 2.8 2.1 4 3.4.9.9 2.1 1.4 3.3 1.9.1-.4-.2-.5-.2-.7-.1-.9-.4-1.6-1.2-2.1-.3-.1-.5-.5-.1-.7.3-.2.7-.4 1.1-.4 1-.1 2 0 2.9.5.4.6 1 .6 1.7.3.5 0 1 0 1.5-.1 2.4-.5 4.9-.6 7.4-1 .4-.1.9-.1.9.4.1.5-.3.7-.7.7s-.7.2-.8.7-.5.7-1 .4c-.1-.1-.2 0-.3.1-.3.4-.7.6-1.1.9-.7.4-1.2 1.2-2.2 1.1-.4-.1-.8.1-1.5.3 1.1.5 2.1.7 2.9.5 2.7-.6 4.9-2.1 6.8-4 .8-.8 1.6-1.5 2.6-2.1.6-.4 1-.3 1.5.1.4.3.6 1 1.4.7.4-.2-.1.4.3.5.2-.3.3-.5.5-.9.1.3-.2.8.2.8.3 0 .4-.4.5-.6.3-.7.6-1.4.7-2.1.4-2.2.1-4.2-1.6-5.8-1.4-1.8-3-3-4.8-3.9zm-11.6 19.1c-.3-.9-1-.8-1.6-.9-.9-.1-1.8.1-2.7 0h-.2c-.5-.4-1.1 0-1.6.1-.4 0-.7.3-.7.8 0 .4.4.5.7.6.7.1 1 .5 1.2 1.1.1.2.2.3.3.4.8.4 1.5.9 2.4.9.6 0 .9.7 1.6.6.8-.1.5.8 1 1.1 0 0 .1 0 .2.1.3-.6.9-.9 1.5-1.3.3-.2.4-.7.8-.7.5 0 .8-.2 1.2-.5.1-.2.4-.2.5-.1.4.1.5 0 .8-.3.4-.3.8-.4.9-1 0-.1.1-.6.6-.5.2 0 .4-.2.4-.4 0-.3-.1-.4-.3-.5-.5-.2-.9-.3-1.5-.2s-1.2.7-2 .3c-.1 0-.3 0-.4.1-.3.3-.7.3-1 0-.5-.4-.6-.1-.7.4-.5-1-.6-1-1.4-.1zM109.6 77c-.4-1.4-1.4-2.2-2.5-2.9-2.4-1.3-5.1-1.3-7.7-1-1.2.1-2.2.7-3 1.6-.4.4-.9.9-.9 1.5 5-4 9.7-4.1 14.1.8zM88.9 89h-.3c-.4 0-.7.2-.9.5s.1.6.3.9c.3.3.6.3 1 0 .1-.1.3-.1.4-.1.5 0 .9-.3.9-.7s-.5-.6-1-.6h-.4zm3.9.6c-.1-.2.1-.9-.3-.8-.6.1-1.3.4-1.5.8-.3.5.5.2.8.5l.1.1c.2.2.4.5.7.4.2-.2.2-.6.2-1zm1.5 16.9c0-.1 0-.2-.1-.3s-.3-.1-.5 0c-.3.3-.6.5-.9.8-.2.2-.3.6.2.7.1 0 1.3-1 1.3-1.2zm-7.7 0c-.2-.4-.6-.5-1.1-.6-.3 0-.4.1-.4.4 0 .8.7.5 1.1.7.2.1.3-.3.4-.5zm8-1.8c-.1 0-.2.1-.2.1 0 .2.1.2.2.2s.2 0 .3-.1c0-.2-.1-.2-.3-.2zm.5 13.8c-.1 0-.1 0 0 0v.2h.1c-.1-.1-.1-.2-.1-.2zm14.7-41.3zm-51.6 1.6c-.8-1.3-2.4-1.2-3.1.1-.1-1.1 0-2.1 1.2-2.6.4-.2.8-.3 1-.1 1.6 1.2 3.6 2 4.4 4 .6 1.7.9 3.4.7 5.2-1-1.2-1.3-2.6-1.7-4-.3-1.1-.8-2-1.9-2.4-.1-.2-.3-.2-.6-.2z" fill="#da8a65"/>
  <path d="M86.9 48.4c.8.2 1.4.4 2.2.2.6-.1 1.3.6 2.1.4.1 0 .2.1.3.2-.6.4-1.1.6-1.8.4-.8-.3-1.6-.2-2.5-.1-.7 0-1.3-.1-1.9-.6.8-.1 1.3.5 2 .2.1-.4-.5-.3-.4-.7zM98.2 39c.1-1.1-.2-2.2-.4-3.3-.1-.3-.1-.7-.1-1 0-.5.3-.4.6-.4s.3.2.3.5c-.3 1.4-.1 2.8-.4 4.2zm-21.9-6.2.6 5.2c-.8-1.6-.7-3.4-.6-5.2zm33 4.3c-.5-1.2-.6-2.4-.8-3.7.4 1.2.9 2.4.8 3.7zM91.4 47.9h1.8a.55.55 0 0 1 .5.3c.1.3-.2.3-.4.3-.8.1-1.4-.1-1.9-.6zm-1.2-11.6c.1 1 .1 2.1-.2 3.1 0-1-.1-2 .2-3.1zm0-4.4c.3.8.6 1.5.1 2.3.3-.7-.6-1.4-.1-2.3zm-2.7 2.3c.1 1.1-.4 2.2-.5 3.3 0-1.1.2-2.2.5-3.3zm20.4 1.4c.3.7.6 1.5.6 2.4-.4-.8-.5-1.6-.6-2.4zm-12.8-2.4c.1 0 .3 0 .3.2-.2.8-.4 1.6-.7 2.3-.1-.9.3-1.7.4-2.5zm13.3-.5zm-24.3 86.8H84zm11.1-86.4c-.1 0-.1 0 0 0-.1 0-.1 0 0 0-.1 0-.1 0 0 0-.1.1 0 0 0 0zm3.9 85z" fill="#aea2a4"/>
  <g fill="#271612">
    <path d="M119.8 83.6c0-.1 0-.2.1-.3.3-1.2.3-1.2 1.4-1.1.1.1.3.1.4.2 0 .2.2.2.3.2l.2.2.8 1.4c1 1.8.8 4-.6 5.7-.2.2-.2.4-.4.6-.4.7-.7 1.4-1.6 1.7-.6.2-1.1.7-1.6 1.1-.4.4-.9.5-1.6.8.6-1.3 1.3-2.3 2.1-3.1 1.3-1.2 2.1-2.6 1.5-4.4-.3-.8-.4-1.6-.7-2.4.1-.4 0-.6-.3-.6z"/>
    <path d="M126.9 80.5c.3-.2.2-.5.2-.7-.1-.8-.2-1.6-.5-2.4-.5-1.4-1.2-1.7-2.5-1-.4.2-.7.4-1 .6.7-.7 1.5-1.2 2.5-1.4.8-.2 1.5.2 1.9.9.5 1 .9 2.1.8 3.3-.2 5.2-2.1 9.7-5.3 13.7-.1.2-.2.6-.5.3-.4-.3-.6-.1-.7.1-.2.4-.6.7-.2 1.2.4.6.1 1.2-.2 1.8-.1.2-.3.2-.4.1-.3-.2.1-.2.1-.4.1-.6.3-1.2.2-1.8-.2-.8.3-1.6 1.1-1.9.3-.1.7-.3.8-.6 1-.8 1.8-1.7 2.2-2.9.7-1.7 1.4-3.5 1.7-5.3 0-1.1.2-2.3-.2-3.6z"/>
  </g>
  <path d="M126.9 80.5c.3 1.2.2 2.5-.1 3.7-.4 1.8-1 3.6-1.7 5.3-.5 1.2-1.3 2.1-2.2 2.9-1 .1-1.8.4-2.6 1.1-.2.1-.3.5-.6.2s.1-.4.2-.6c.2-.5.6-.7 1.1-.9 2.3-.8 3.9-3.1 3.9-5.5v-2c0-.3-.1-.7.2-.7.4 0 .2.4.3.6.1.5 0 1.1.7 1.4l.5-4.8c0-.2-.1-.5.3-.7z" fill="#da8a65"/>
  <path d="M118.4 96.7c.4.4.6 1 1.2.7.3-.1.2.1.2.3.1.4.1.8.4 1.2-1 .1-1.8-.8-1.8-2.2z" fill="#271612"/>
  <path d="M121.7 82.3c-.1-.1-.3-.1-.4-.2.3-.7.8-.9 1.5-.4.3.3.6.6.9 1-.6.4-1-.5-1.5-.1l-.2-.2c0-.1-.1-.1-.3-.1z" fill="#da8a65"/>
  <path d="M122.1 78c-.8 1-.9 2.3-1.5 3.7.1-1.4.7-2.9 1.5-3.7zm.3-.3c.1-.3.2-.4.4-.4.1 0 0 .2-.1.2-.1.1-.2.1-.3.2zM59.6 94.1c.6.3 1 .7 1.2 1.4.1.4.5.7.8 1a.37.37 0 0 1 0 .6c-.2.2-.4.1-.6-.1-.1-.2-.3-.3-.4-.5-.1-1-.5-1.7-1-2.4zm-1.4-15.3c.3 0 .5 0 .5.3a.55.55 0 0 1-.5-.3zm17.2 19.5c.8-.1 1.2-.8 1.8-1.1.5-.2 1-.6 1.5-.1.1.1.2.1.3 0 .7-.6 1.6-.4 2.3-.9.2-.1.3-.2.5.1.2.4.8.1.9 0 .7-.6 1.5-.4 2.3-.6.3-.1.7 0 .8-.5.1 0 .3 0 .2-.2l-.1-.1c-.2 0-.2.2-.2.3-1.1-.3-2.3-.6-3.3-1.2l-.1-.1c-.9-.9-.9-3.8.1-4.6.1-.1.2-.2.5-.2-.1.5-.4.9-.7 1.2-.6.8-.5 1.7-.2 2.6.2.5.5.7 1 .6.7 0 1.3-.3 2-.5 1.1-.3 2.1-.3 3 .5.4.3.9.5 1.4.8 1 .5 1.7.1 2.4-.5 1.2-1.2 2.6-1.2 4.1-.6.4.2.8.3 1.2.5.2.1.8-.2.7.3-.1.4-.4.8-.9.9-.4.1-.8-.1-1.1-.4-1-.9-2.1-.7-3.2-.4-.4.1-.7.5-.4 1 .1.2.1.4.1.6 0 .4.3.5.6.5.4 0 .3-.2.2-.4 0-.3.1-.2.3-.1s.5.1.8.2c.2-.3-.2-.5 0-.7 1.7.6 3.3 1.1 5.1 1.5 1 .2 2.1.1 3.1.4.6.2 1.3.5 2 .3.1 0 .3.1.3.2.2.6 1 .1 1.3.7.1.2.2-.1.3-.3.1-.3-.1-.6.1-.8.9.6.9.7 1.3 3.5.6-2.2-.1-3.8-1.9-5.1l-3.6-2.8c-.1-.1-.2-.3-.4-.4 1.8.8 3.3 2.1 4.8 3.4 1.7 1.6 2.1 3.6 1.6 5.8-.1.7-.4 1.4-.7 2.1-.1.2-.1.6-.5.6-.4-.1-.1-.5-.2-.8-.2.4-.4.6-.5.9-.4-.1.1-.6-.3-.5-.8.3-1-.4-1.4-.7-.5-.4-.9-.5-1.5-.1-.9.6-1.8 1.3-2.6 2.1-1.9 2-4.1 3.5-6.8 4-.9.2-1.9 0-2.9-.5.6-.1 1.1-.3 1.5-.3 1 .2 1.5-.6 2.2-1.1.4-.2.8-.5 1.1-.9.1-.1.2-.1.3-.1.5.2.9.1 1-.4s.4-.7.8-.7c.5 0 .8-.3.7-.7-.1-.5-.6-.5-.9-.4l-7.4 1c-.5.1-1 .1-1.5.1.1-.1.7-.3.1-.5-.5-.2-1.1-.3-1.6-.4-.6-.1-.4.3-.1.5-.9-.4-1.9-.5-2.9-.5-.4 0-.8.2-1.1.4-.4.2-.2.6.1.7.9.5 1.1 1.2 1.2 2.1 0 .2.3.3.2.7-1.2-.4-2.4-.9-3.3-1.9-1.2-1.2-2.7-2.2-4-3.4-.4-.4-1.3-.3-1.5.2-.4.8-1.1 1.4-1.3 2.4-1.2-1.6-1.8-3.2-1.9-5-.1-1.5.3-3 1.4-4.3 1.1-1.2 2.5-2 3.7-3.1h.3c-.3.5-.8.8-1.2 1.1-1.1.8-2.2 1.6-3 2.8s-1 2.5-.9 3.9c.3-1.4.4-2.8 1.7-3.8.3.3-.2.5 0 .7v.1-.1c.2-.1.5-.1.7-.2.2.3.2.6.2.7s0 .1 0 0c-.1.1-.1.1 0 0 0 .1 0 .1 0 0zm22.3 5.1c0 .1 0 .1.1 0h-.1c.1-.7.7-.6 1.2-.6 1-.1 1.9 0 2.9 0 .4 0 .9-.1.9-.4.1-.4-.4-.5-.8-.6-.6-.2-1.2-.3-1.8-.5l-3.2-.8c-.8-.2-2 .4-2.2-1.2-.1.5 0 1.2-.5.8-.5-.5-.6-.2-.9 0h-.2c-.5-.1-1.6 0-2.1.1h-.3c-.6-.2-1.3.1-1.7-.6-.1-.2-.4 0-.4 0-.4.8-.9.2-1.3.1s-.7-.1-.9.1c-.3.2-.6.2-.9.2-1.3.2-2.7 0-4 .6-1.2.6-2.6.9-3.7 1.7-.2.1-.4.2-.3.4s.2.4.4.4c.5 0 1 .1 1.4-.1.8-.3 1.6-.3 2.3-.2 2.4.3 4.9.8 7.3 1.4 1.2.3 2.4.4 3.6.1 1.5-.6 3.4-.3 5.2-.9zm-5.9-6.7c.2 0 .4.1.5-.1.1-.3-.1-.5-.1-.8-.1-.2-.3-.3-.5-.2-.4.1-.7.2-1.1.4-.3.1-.3.4-.2.6s.2.4.4.1c.3.2.7-.4 1 0zm-5.1.7c.8-.4.6-1.2.7-1.9.1-.4-.3-.4-.5-.4-.5-.1-.4.4-.6.6-.2.3 0 .4.3.4s.3.1.2.3-.2.4-.3.7c-.1.1-.1.2.2.3zm2.5.3c.2-.5.5-.8.3-1.2-.1-.2-.1-.4-.4-.4s-.2.3-.2.5a8.11 8.11 0 0 1 .3 1.1zm-4.6.3c.5-.3.6-.8.7-1.2-.3.4-.4.9-.7 1.2zM73 77.6c-.3.4-.7.6-1.3.5-.7-.1-1.4.1-2.3.5.6-.8 1.4-1.2 1.9-1.9 1.1-1.5 2.7-2.2 4.6-2.4-1.5-.2-2.7.3-3.8 1.2-.8.6-1.4 1.4-2.1 2-.1.1-.2.3-.4.2-.3-.2 0-.3.1-.5 1.8-3 4.7-3.5 7.9-3.7.5 0 .9 0 1.4-.1.1 0 .3-.1.3-.2.1-.2-.1-.3-.2-.4-1.1-.8-2.4-1-3.6-1-2.1-.1-4 .7-5.7 2-1 .8-1.8 2-3.2 2.5.3-1.7.9-3.2 1.7-4.6 1-1.6 2.6-2.3 4.4-2.5 2.1-.2 4.2-.2 6.3-.1l2.6.3c.3 0 .6 0 .7.5 0 .1.1.2.2.2 1.1-.8 1.2.5 1.4.9.3.5.9 1.1.5 1.8l.1.2c.1.1.2 0 .3-.1v-.8c.6.1.3.6.5.9.3.4.1.6-.4.8-.5.1-.4.7-.1.9.9.7.7 1.8.8 2.7 0 .2 0 .4-.2.4s-.3-.1-.3-.3c-.1-.5-.4-.6-.9-.7-.9-.2-1.4-1-2.1-1.5-1.7-1.2-3.5-1.9-5.6-1.2 4.8.2 5.7 1.3 7.3 3.8-.4 0-.8.1-1.2 0-1.1-.4-2.2.1-3.3.3-1.5.3-3 .2-4.4-.2-.6-.6-1-1.2-.8-2.3-.5.4-.9.7-1.2 1.1-.3.2-.3.6.1.8zm7.8-.1c.4 0 1.1.1.9-.5-.1-.4-.4-1-1-1-.4-.2-.7-.5-1.2-.7.2 1.2-.2 2.1-1.1 2.8.8-.2 1.6-.2 2.4-.6zm-5.2-2.2c-.6.5-.6.6.2 1.4-.4-.6-.1-1-.2-1.4zm2.2.7c.2 0 .4 0 .4-.3 0-.2-.2-.3-.4-.3s-.5.1-.5.3c.1.3.3.3.5.3zm17.7-6.2c.1-.4.5-.4.8-.5 2.9-.6 5.8-.9 8.8-1 1.3 0 2.6 0 3.8.7 1.9 1.3 3.2 3.1 4 5.2.1.2.2.4 0 .5-.2.2-.4 0-.6-.1l-2.6-1.6c-1.8-.9-3.5-1.8-5.5-1.9-1.3-.1-2.5.2-3.7.5l-5.7 1.6c-1 .2-1.9.2-2.8-.5-.7-.6-.1-.9.1-1.1.2-.4.5 0 .7.2-.1-.4-.1-1.1.4-1 .8.1.6.9.5 1.5.3-.3.2-.6.2-.9-.2-.8.6-1.2 1-1.7.2-.2.4.2.6.1 0 .1 0 .3.2.2 0 0 .1 0 .1-.1 0-.2-.2-.1-.3-.1zm-5.3 41.6c.8-1 .9-1 1.4 0 0-.5.2-.8.7-.4.3.2.6.3 1 0 .1-.1.3-.2.4-.1.7.4 1.3-.2 2-.3.5-.1 1 0 1.5.2.2.1.4.3.3.5 0 .3-.3.5-.4.4-.5-.2-.6.4-.6.5-.1.6-.5.7-.9 1-.3.2-.4.4-.8.3-.2-.1-.4 0-.5.1-.3.3-.6.6-1.2.5-.4 0-.5.5-.8.7-.5.4-1.1.7-1.5 1.3-.1 0-.1 0-.2-.1-.5-.2-.2-1.2-1-1.1-.7.1-1-.6-1.6-.6-.9 0-1.6-.6-2.4-.9-.2-.1-.2-.2-.3-.4-.2-.5-.6-1-1.2-1.1-.3 0-.7-.1-.7-.6s.3-.8.7-.8c.5-.1 1-.5 1.6-.1h.2c.9.1 1.8-.1 2.7 0 .6.3 1.3.2 1.6 1zm8.1-35c-.7.1-.7.7-.9 1.3-.3-.2-.1-.6-.6-.6-.1.1.4.8-.3.6-.2 0-.5.1-.7-.2s.2-.4.3-.6c1.6-1.6 3.3-3 5.8-3.1 2.7-.2 6 1.4 7.4 4.2-2.9-.2-5.7.7-8.5 0 .2-.2-.1-.3-.2-.5-.3-.4-.6-.9-.6-1.4 0-1.1-.2-1.1-1.1-.5-.3.3-.6.4-.6.8zm7-.7c0 .9-.3 1.7-1.1 2.3.6 0 2.3-.6 2.3-.9-.1-.6-.6-.9-1.2-1.4zm-1.4.1c0-.2-.1-.5-.3-.5s-.4.2-.3.4c0 .2.1.5.4.6.1 0 .2-.3.2-.5zm5.7 1.2c-4.5-4.9-9.1-4.9-14.1-.8.1-.7.5-1.1.9-1.5.8-.8 1.8-1.4 3-1.6 2.6-.3 5.3-.3 7.7 1 1.2.7 2.2 1.5 2.5 2.9z" fill="#271612"/>
  <path d="M98.3 76.4c.1-.4.4-.5.6-.7.9-.6 1-.5 1.1.5 0 .6.2 1 .6 1.4.1.1.4.2.2.5l-2-.6c-.6-.2-.3-.8-.5-1.1zM73 77.6c-.5-.2-.5-.5-.2-.8l1.2-1.1c-.2 1 .2 1.7.8 2.3-.6.2-1.1-.3-1.8-.4z" fill="#fefefe"/>
  <path d="M88.6 105.4c-.6.3-1.2.3-1.7-.3.6.3 1.1.4 1.7.3zm6-.7c.1 0 .3 0 .2.2 0 .1-.2.1-.3.1s-.2 0-.2-.2c.1 0 .3-.1.3-.1zM84.3 71.1c-.3-.1-.4-.3-.3-.5.3 0 .3.3.3.5zm.3.8c-.2-.1-.2-.2-.1-.3 0 0 .1-.1.1 0 .1.1.1.2 0 .3zm-.3-.8s.1 0 .1.1c-.1.1-.1-.1-.1-.1zm-7.6 42.4c0-.1.1-.2.1-.1.1.1.1.2-.1.1.1.1 0 0 0 0zm33.1-36.3zm-8 15.1z" fill="#271612"/>
  <path d="M97.7 103.4c-1.7.7-3.6.4-5.4.8-1.2.3-2.5.2-3.6-.1l-7.3-1.4c-.7-.1-1.5-.1-2.3.2-.4.1-.9.1-1.4.1-.2 0-.4-.2-.4-.4-.1-.2.2-.3.3-.4 1.1-.8 2.5-1.1 3.7-1.7 1.3-.6 2.7-.4 4-.6.3-.1.6 0 .9-.2s.6-.2.9-.1c.4.1.9.7 1.3-.1 0-.1.3-.2.4 0 .4.6 1.2.4 1.7.6.1 0 .2.1.3 0 .5-.1 1.6-.2 2.1-.1h.2c.3-.2.5-.4.9 0 .5.5.4-.3.5-.8.3 1.6 1.5.9 2.2 1.2l3.2.8c.6.1 1.2.3 1.8.5.4.1.8.2.8.6-.1.3-.5.4-.9.4-1 0-1.9-.1-2.9 0-.3.1-.9 0-1 .7z" fill="#da8a65"/>
  <path d="M75.4 98.3c0 .1 0 .1 0 0-.1.1-.1.1 0 0 0 .1 0 .1 0 0zm-1 0c0 .1 0 .1 0 0 0 .1 0 .1 0 0z" fill="#aea2a4"/>
  <g fill="#fefefe">
    <path d="M80.8 77.5c-.8.4-1.6.4-2.5.6.9-.7 1.3-1.7 1.1-2.8.5.1.9.4 1.2.7.2.4.5.9.2 1.5z"/>
    <path d="M80.8 77.5c.3-.6 0-1.1-.2-1.6.6.1.9.7 1 1 .3.7-.4.6-.8.6z"/>
  </g>
  <path d="M75.6 75.3c.2.4-.1.8.2 1.4-.9-.7-.9-.9-.2-1.4zm2.2.7c-.2 0-.5 0-.5-.3s.2-.3.5-.3c.2 0 .4.1.4.3 0 .3-.2.3-.4.3z" fill="#aea2a4"/>
  <path d="M105.3 75.7c.6.4 1.2.8 1.2 1.5 0 .2-1.7.9-2.3.9a3.01 3.01 0 0 0 1.1-2.4z" fill="#fefefe"/>
  <path d="M103.9 75.8c0 .2 0 .5-.3.4-.3 0-.4-.3-.4-.6 0-.2.1-.4.3-.4.3.1.4.4.4.6z" fill="#aea2a4"/>
  <path d="m64 36.4 2.8-5.7c.9-1.3 1.3-2.1 1.4-1.4s.6 1.4.9.7.9-.5 1.3-.6 1.8-1.5 1.8-1.5-.2-1.1.4-1.4c.6-.2.8-.2 1.1-.9s.7-.9 1.2-.8.7-1.7 1.1-1.7 1.1.2 1.5-.4c.4-.7.2-1.4 1-1.7s.7-1.6 1.3-1.3c.5.3.5.6 1.1-.2s.7-.7 1.3-.5 1 .5 1.1.2 0-1.2.8-1 .9.2 1.2.1c.2-.2.4-.4 1.3.2.9.5.4-.7.7-.4.3.2 0 1.2.8 1.1.7-.1 1.4.1 1.9.7.4.6.6.8 1.1.6.6-.2 1.2-.2 1.4.2.2.3.8 1.8 1.5 1.5.7-.2.5-1.6 1.2-1.9s1-.6 1.3-.1.5.2 1.3.6.2.7 1.3 1.1 1.1 1.3 1.5 1.7 2 1.9 2.5 2c.5 0 .6-.3 1.2-.1s3.3 2.2 5.7 5.2c2.5 3 3 5 3 5l-2.4 5.3-14.4 5-.9 2-1.4.4-2.2 1-.9.3H89l-2.1-.2-1.6-.4-3-1.6-4.5-3.1-5.3.3-7.8-.4-2.2-4.3 1.5-3.6z" fill="#271612"/>
</svg>
